<svg width="22" height="23" viewBox="0 0 22 23" fill="none" xmlns="http://www.w3.org/2000/svg">
<path d="M20.0373 9.76924H19.3325V9.73256H11.4575V13.2674H16.4026C15.6811 15.3252 13.7426 16.8023 11.4575 16.8023C8.55821 16.8023 6.20752 14.4282 6.20752 11.5C6.20752 8.5718 8.55821 6.19768 11.4575 6.19768C12.7958 6.19768 14.0134 6.70759 14.9405 7.54049L17.4154 5.04089C15.8526 3.56994 13.7623 2.6628 11.4575 2.6628C6.62533 2.6628 2.70752 6.61966 2.70752 11.5C2.70752 16.3804 6.62533 20.3372 11.4575 20.3372C16.2897 20.3372 20.2075 16.3804 20.2075 11.5C20.2075 10.9075 20.1471 10.3291 20.0373 9.76924Z" fill="#FFC107"/>
<path d="M3.71631 7.38673L6.59112 9.51605C7.369 7.57098 9.25287 6.19768 11.4574 6.19768C12.7957 6.19768 14.0133 6.70759 14.9404 7.54049L17.4153 5.04089C15.8526 3.56994 13.7622 2.6628 11.4574 2.6628C8.09656 2.6628 5.18193 4.57914 3.71631 7.38673Z" fill="#FF3D00"/>
<path d="M11.4577 20.3372C13.7178 20.3372 15.7714 19.4637 17.3241 18.0431L14.616 15.7286C13.708 16.426 12.5984 16.8032 11.4577 16.8023C9.18178 16.8023 7.24934 15.3367 6.52134 13.2913L3.66797 15.5117C5.11609 18.3736 8.05697 20.3372 11.4577 20.3372Z" fill="#4CAF50"/>
<path d="M20.0373 9.76923H19.3325V9.73256H11.4575V13.2674H16.4026C16.0575 14.2468 15.4359 15.1026 14.6145 15.729L14.6158 15.7282L17.324 18.0426C17.1323 18.2185 20.2075 15.9186 20.2075 11.5C20.2075 10.9075 20.1471 10.3291 20.0373 9.76923Z" fill="#1976D2"/>
</svg>
