<svg width="100" height="100" viewBox="0 0 100 100" fill="none" xmlns="http://www.w3.org/2000/svg">
<circle cx="50" cy="50" r="50" fill="white"/>
<path d="M63.333 53.3333H66.6663V56.6667H63.333C61.033 56.6667 58.7663 56.0833 56.6663 55C52.4997 57.1667 47.4997 57.1667 43.333 55C41.233 56.0833 38.9497 56.6667 36.6663 56.6667H33.333V53.3333H36.6663C38.983 53.3333 41.2997 52.55 43.333 51.1167C47.3997 53.9667 52.5997 53.9667 56.6663 51.1167C58.6997 52.55 61.0163 53.3333 63.333 53.3333ZM63.333 63.3333H66.6663V66.6667H63.333C61.033 66.6667 58.7663 66.0833 56.6663 65C52.4997 67.1667 47.4997 67.1667 43.333 65C41.233 66.0833 38.9497 66.6667 36.6663 66.6667H33.333V63.3333H36.6663C38.983 63.3333 41.2997 62.55 43.333 61.1167C47.3997 63.9667 52.5997 63.9667 56.6663 61.1167C58.6997 62.55 61.0163 63.3333 63.333 63.3333ZM41.6663 33.3333L34.9997 40H39.9997V48.3333H43.333V40H48.333M58.333 33.3333L51.6663 40H56.6663V48.3333H59.9997V40H64.9997" fill="#006B8B"/>
</svg>
